<?xml version="1.0" standalone="no"?>
<!DOCTYPE svg PUBLIC "-//W3C//DTD SVG 20010904//EN"
 "http://www.w3.org/TR/2001/REC-SVG-20010904/DTD/svg10.dtd">
<svg version="1.0" xmlns="http://www.w3.org/2000/svg"
 width="1024.000000pt" height="1024.000000pt" viewBox="0 0 1024.000000 1024.000000"
 preserveAspectRatio="xMidYMid meet">

<g transform="translate(0.000000,1024.000000) scale(0.100000,-0.100000)"
fill="#000000" stroke="none">
<path d="M0 5120 l0 -5120 5120 0 5120 0 0 5120 0 5120 -5120 0 -5120 0 0
-5120z m5515 4105 c223 -48 406 -124 570 -235 121 -81 139 -96 269 -214 360
-328 615 -862 576 -1204 -13 -112 -25 -132 -112 -178 -65 -34 -81 -39 -143
-38 -55 0 -83 6 -130 28 -71 32 -115 71 -115 102 0 31 52 67 88 61 15 -2 21
-2 15 0 -7 3 -13 9 -13 14 0 6 5 7 10 4 6 -3 10 -2 10 4 0 5 -6 12 -12 15 -7
3 -3 3 9 0 14 -3 25 1 32 13 6 11 11 13 11 5 0 -7 5 -10 10 -7 6 4 8 11 5 16
-4 5 -1 9 5 9 7 0 10 -6 7 -14 -3 -8 1 -20 9 -26 8 -7 14 -20 15 -29 0 -12 2
-11 9 4 13 30 12 32 -15 60 -19 18 -22 25 -11 25 10 0 13 6 9 17 -5 11 -3 14
6 9 7 -5 11 -17 8 -27 -3 -11 -1 -19 5 -19 6 0 8 11 4 28 -4 15 -8 35 -9 45
-1 9 -6 16 -12 14 -5 -2 -9 -12 -7 -22 2 -10 -1 -14 -7 -10 -7 3 -8 0 -5 -9 9
-24 -4 -19 -17 5 -8 15 -8 19 0 15 6 -4 11 0 11 8 0 9 5 16 10 16 6 0 10 8 10
18 0 14 2 15 10 2 6 -10 10 -11 10 -2 0 6 4 12 10 12 5 0 8 -12 6 -27 -2 -16
-1 -20 1 -10 2 9 9 15 14 12 14 -9 11 11 -4 24 -8 6 -23 9 -34 7 -11 -2 -26 0
-34 5 -11 7 -11 9 -1 9 7 0 10 5 7 10 -3 6 2 10 12 10 11 0 14 3 7 8 -5 4 -11
28 -13 54 -2 36 2 49 16 58 13 8 13 10 2 7 -13 -4 -16 4 -17 37 -1 24 -11 76
-21 117 -21 82 -125 309 -148 322 -21 13 -73 88 -67 98 3 5 -2 6 -10 3 -9 -3
-14 -9 -12 -13 2 -3 21 -37 43 -76 22 -38 61 -123 87 -187 75 -188 82 -321 26
-471 -31 -83 -79 -131 -177 -179 -76 -37 -95 -41 -178 -46 -89 -4 -135 5 -135
28 0 5 28 25 63 44 34 19 75 49 91 65 16 17 34 27 40 24 6 -3 8 -3 4 2 -4 4 2
26 14 48 34 68 54 156 52 232 -2 45 2 72 9 77 9 6 9 8 0 8 -8 0 -13 15 -13 39
0 48 -50 243 -84 330 -36 89 -129 253 -191 337 -100 133 -352 345 -409 343
-17 0 -11 -8 28 -42 28 -23 82 -69 120 -103 291 -249 481 -650 463 -974 -9
-169 -65 -263 -192 -324 -86 -42 -157 -46 -230 -12 -65 29 -115 78 -115 111 0
27 79 147 100 153 13 3 13 2 0 -7 -17 -12 -4 -13 25 -2 17 7 16 9 -10 15 l-30
8 25 14 c18 11 20 13 5 10 -19 -6 -20 -2 -17 91 4 104 -8 216 -38 358 -65 310
-251 642 -405 725 -42 22 -41 2 2 -43 185 -190 321 -507 354 -820 25 -236 1
-336 -106 -436 -134 -125 -342 -169 -511 -108 -222 81 -305 228 -291 517 7
138 25 225 79 385 67 200 142 330 262 453 68 70 61 80 -20 26 -113 -75 -224
-247 -315 -490 -73 -195 -102 -370 -95 -587 2 -65 0 -113 -5 -106 -4 7 -5 18
-1 24 3 5 -1 4 -10 -2 -8 -7 -18 -9 -22 -5 -4 4 -7 2 -6 -3 5 -23 -1 -35 -16
-35 -14 0 -14 3 -4 15 7 9 10 18 6 22 -3 3 -6 0 -6 -8 0 -12 -2 -11 -11 1 -9
13 -10 13 -6 -2 6 -18 -15 -42 -27 -31 -4 4 -4 0 0 -10 3 -9 10 -17 15 -17 5
0 9 -5 9 -11 0 -5 -4 -8 -9 -5 -5 3 -8 -6 -8 -19 0 -14 4 -28 8 -31 5 -3 6
-10 3 -16 -4 -7 -2 -8 4 -4 7 4 12 1 12 -6 0 -10 2 -10 9 1 5 8 14 10 21 6 9
-6 11 -4 5 5 -6 10 -4 12 8 7 11 -4 14 -2 10 8 -4 13 -8 13 -26 0 -15 -11 -24
-12 -34 -3 -20 16 -16 33 5 17 15 -13 16 -12 4 3 -11 13 -11 21 -2 35 10 16
11 16 6 1 -3 -10 -2 -19 2 -19 31 -6 51 -5 46 2 -2 4 -12 5 -21 2 -15 -6 -16
-5 -3 9 8 9 17 12 18 7 7 -19 19 -8 17 16 -2 14 1 25 5 25 5 0 7 -16 5 -35 -6
-41 5 -46 22 -10 6 14 7 23 3 20 -4 -3 -6 5 -3 16 5 19 9 16 28 -22 13 -24 32
-53 44 -63 43 -39 14 -89 -79 -138 -67 -34 -193 -33 -270 3 -106 49 -164 135
-180 267 -29 221 52 501 215 747 99 149 274 316 404 385 59 32 76 50 47 50
-58 0 -259 -132 -372 -244 -137 -136 -277 -371 -330 -552 -13 -47 -24 -86 -24
-89 0 -3 -12 -6 -27 -6 -24 -2 -25 -2 -5 -6 12 -2 22 -11 22 -20 0 -13 -3 -13
-15 -3 -20 16 -19 6 1 -14 14 -15 14 -16 -1 -16 -13 0 -14 -4 -4 -21 9 -17 8
-23 -2 -30 -12 -7 -11 -11 1 -19 13 -8 12 -10 -2 -10 -10 0 -18 -5 -18 -11 0
-5 5 -7 12 -3 8 5 9 2 3 -12 -11 -27 -15 -95 -4 -88 5 3 4 -7 -3 -21 -7 -15
-14 -22 -16 -16 -2 6 -11 11 -20 11 -13 0 -13 3 -4 12 10 10 15 10 23 -2 9
-13 10 -13 7 0 -3 8 -15 17 -29 21 l-24 6 27 7 c18 5 25 13 21 23 -3 8 -8 10
-12 5 -3 -5 -15 -11 -25 -13 -19 -4 -32 -39 -15 -39 6 0 8 -4 4 -10 -3 -5 -13
-7 -23 -4 -10 4 -13 3 -6 -3 6 -4 13 -16 17 -26 4 -11 12 -15 18 -11 8 4 9 3
5 -5 -6 -8 -12 -9 -20 -2 -7 6 -16 7 -20 3 -4 -4 -6 0 -4 8 2 11 -7 16 -32 18
-24 2 -31 0 -21 -6 7 -5 23 -7 35 -5 17 4 18 3 6 -6 -11 -8 -12 -11 -2 -11 7
0 10 -5 7 -10 -5 -8 -12 -7 -23 2 -13 11 -14 11 -7 -1 6 -11 4 -13 -11 -7 -15
6 -16 5 -7 -5 16 -16 53 -19 50 -5 -3 15 25 14 31 -1 2 -7 -3 -13 -12 -13 -9
0 -16 -5 -16 -11 0 -6 6 -9 13 -6 6 2 23 8 37 12 24 7 24 6 6 -7 -13 -10 -15
-17 -8 -22 7 -4 12 -2 12 5 0 7 3 9 7 6 3 -4 12 -2 19 4 7 6 14 6 18 1 3 -6
-5 -13 -19 -16 -14 -4 -25 -12 -25 -19 0 -6 -10 -1 -21 13 -11 14 -18 20 -15
13 4 -6 -6 -21 -20 -32 -15 -12 -21 -21 -13 -21 11 0 11 -2 -1 -10 -12 -8 -10
-10 10 -10 20 0 22 -2 10 -10 -13 -8 -12 -10 5 -11 11 -1 25 -1 32 0 6 1 15
-4 19 -10 5 -8 2 -10 -9 -6 -8 3 -18 0 -20 -7 -3 -8 4 -11 24 -8 24 3 28 1 23
-12 -3 -9 -11 -16 -17 -16 -6 0 -8 -3 -4 -6 3 -3 12 -2 19 2 7 5 18 9 23 10 6
0 16 2 23 2 7 1 10 6 7 12 -4 6 1 7 11 3 13 -5 15 -3 9 7 -5 9 -4 11 4 6 9 -6
9 -11 0 -22 -10 -12 -9 -13 6 -8 13 5 16 4 11 -4 -4 -7 -1 -12 9 -12 10 0 14
5 9 13 -4 6 13 -7 37 -30 24 -23 65 -51 92 -63 26 -12 47 -25 47 -30 0 -19
-75 -32 -154 -28 -62 4 -93 11 -131 31 -67 34 -114 71 -137 104 -53 81 -80
279 -54 403 18 83 74 228 137 353 27 53 47 97 45 97 -3 0 -20 -21 -37 -47 -18
-27 -35 -50 -38 -53 -3 -3 -19 -31 -34 -63 -18 -36 -33 -55 -40 -50 -7 4 -5
-2 3 -12 13 -17 13 -18 -1 -13 -12 5 -15 1 -11 -19 4 -19 0 -25 -18 -30 -13
-4 -17 -8 -11 -13 16 -9 2 -42 -15 -36 -7 3 -16 1 -19 -4 -4 -6 1 -10 9 -10 9
0 16 -5 16 -10 0 -6 -8 -10 -17 -8 -14 2 -18 -4 -19 -27 -2 -57 -3 -58 -18
-46 -11 9 -14 8 -12 -6 0 -10 5 -21 11 -25 5 -4 -4 -7 -20 -6 -43 0 -88 -19
-82 -36 4 -10 -1 -12 -16 -9 -20 4 -20 3 -4 -7 21 -14 48 -6 43 12 -1 7 -1 10
1 7 2 -4 13 -5 23 -2 11 3 20 0 20 -6 0 -6 -7 -8 -17 -4 -11 4 -14 3 -9 -5 4
-7 15 -12 24 -13 11 0 12 -2 4 -6 -6 -2 -10 -9 -7 -14 4 -5 -1 -6 -9 -3 -9 3
-14 10 -11 14 3 5 1 11 -5 15 -5 3 -10 2 -10 -3 0 -5 -11 -12 -25 -14 -14 -3
-25 -1 -25 6 0 6 -5 4 -10 -4 -7 -12 -2 -17 22 -26 18 -6 33 -16 34 -22 1 -7
0 -8 -3 -2 -2 5 -9 10 -14 10 -6 0 -7 -5 -3 -12 4 -7 3 -8 -4 -4 -7 4 -13 2
-13 -3 -1 -6 -2 -17 -3 -23 -1 -7 8 -16 19 -20 18 -6 18 -6 -3 -7 -13 -1 -21
-5 -17 -11 3 -5 11 -8 18 -6 7 1 8 1 3 -2 -5 -3 2 -11 15 -18 13 -7 19 -13 13
-14 -6 0 -23 9 -38 21 -15 11 -33 18 -41 15 -8 -3 -15 -1 -15 5 0 5 -6 4 -14
-3 -8 -7 -10 -14 -5 -16 5 -2 9 -8 9 -13 0 -6 -4 -8 -8 -5 -5 3 -9 -1 -9 -9 0
-11 5 -11 19 -4 16 9 17 13 6 26 -12 15 -11 15 10 2 12 -8 22 -17 22 -21 0 -5
0 -11 0 -15 0 -5 -8 -9 -18 -9 -9 -1 -20 -2 -24 -3 -5 -1 -11 -1 -14 0 -3 0
-12 -8 -20 -18 -10 -13 -13 -14 -11 -3 2 8 2 12 0 7 -3 -4 -10 -4 -16 0 -7 4
-6 -1 2 -10 12 -15 11 -17 -10 -18 -22 0 -22 -1 -4 -8 14 -6 27 -1 49 20 17
15 34 25 40 22 5 -4 -1 -10 -13 -15 -18 -6 -22 -14 -19 -32 4 -19 1 -23 -16
-20 -12 3 -5 -3 14 -13 19 -9 38 -16 43 -15 4 1 7 -2 7 -8 0 -5 -4 -10 -10
-10 -5 0 -6 -8 -3 -17 6 -16 5 -16 -10 -5 -9 8 -21 11 -27 7 -5 -3 -10 0 -10
7 0 8 -5 6 -11 -5 -6 -9 -14 -15 -19 -12 -5 3 -12 0 -16 -6 -5 -8 -3 -9 5 -5
8 6 11 2 9 -10 -3 -19 4 -20 67 -14 19 1 20 2 1 9 -27 11 -7 19 24 10 14 -4
20 -7 15 -8 -6 -1 -11 -11 -12 -22 -1 -12 -7 -27 -14 -33 -8 -8 -10 -5 -4 14
5 19 4 21 -4 10 -8 -11 -11 -12 -11 -2 0 7 -5 10 -10 7 -6 -4 -4 -12 5 -22 9
-9 13 -23 10 -31 -5 -13 -2 -12 14 2 19 17 19 17 14 -2 -7 -30 15 -37 28 -8 8
17 19 25 34 24 14 -1 21 -7 18 -15 -3 -8 2 -13 13 -13 16 0 17 -2 4 -10 -10
-6 -16 -6 -18 0 -6 16 -28 12 -43 -7 -13 -16 -12 -17 4 -4 9 8 21 11 24 7 4
-4 1 -12 -7 -17 -13 -9 -13 -10 1 -6 9 3 22 0 29 -6 10 -9 11 -9 6 0 -3 6 -2
14 4 18 5 3 10 2 10 -3 0 -6 11 -9 24 -8 18 1 22 4 14 13 -11 14 -1 36 13 27
5 -3 7 -9 5 -13 -3 -4 -1 -13 5 -21 7 -13 9 -12 9 3 0 9 7 17 16 17 8 0 13 4
10 9 -3 5 1 11 9 15 8 3 17 1 20 -3 3 -5 14 -7 26 -4 25 7 69 -15 69 -34 0
-19 -109 -87 -164 -103 -71 -20 -174 -9 -243 26 -51 25 -62 36 -87 88 -93 185
9 592 232 931 70 106 220 283 318 375 74 70 306 231 403 279 161 82 305 128
491 157 109 17 407 11 505 -11z m-1693 -84 c2 -17 1 -28 -4 -25 -8 5 -12 54
-4 54 2 0 6 -13 8 -29z m69 -18 c-9 -15 -10 -12 -10 17 0 29 1 32 10 18 7 -12
7 -24 0 -35z m2677 19 c4 -26 -13 -52 -35 -52 -11 0 -8 6 8 18 15 13 20 25 16
36 -9 24 -30 15 -38 -15 l-7 -24 -1 26 c-1 32 7 41 34 37 12 -2 21 -12 23 -26z
m-3571 -168 c43 -21 82 -72 89 -116 11 -77 -89 -168 -170 -152 -42 7 -101 61
-122 110 -18 43 -2 98 41 141 28 28 40 33 80 33 26 0 63 -7 82 -16z m4571 -39
c18 -15 34 -41 40 -68 28 -110 -34 -117 -115 -14 -11 14 -32 27 -48 29 -15 2
-33 11 -39 21 -17 28 27 56 86 57 35 0 54 -6 76 -25z m-4816 -85 c-5 -35 -16
-45 -70 -65 -173 -67 -349 -239 -451 -443 -49 -97 -98 -255 -117 -377 -24
-159 -16 -379 20 -538 119 -522 412 -912 841 -1121 176 -86 249 -110 465 -152
93 -18 356 -20 425 -4 129 32 329 151 421 253 162 177 304 473 355 741 10 55
24 103 30 107 7 4 9 14 6 24 -4 9 -3 14 3 10 6 -3 10 -14 11 -23 0 -11 4 -9
10 8 l10 24 19 -28 18 -29 4 24 c4 28 32 33 34 6 1 -12 1 -13 -3 -2 -2 8 -8
15 -13 15 -5 0 -4 -14 2 -32 8 -24 8 -54 -1 -122 -24 -164 -94 -357 -178 -489
-26 -42 -68 -113 -93 -159 -62 -114 -154 -209 -280 -287 -204 -128 -319 -162
-550 -163 -203 0 -408 41 -628 128 -172 67 -269 129 -465 297 -261 225 -437
544 -529 962 -28 127 -31 157 -32 320 -1 135 4 202 17 267 61 301 174 520 357
690 119 111 266 191 340 185 21 -2 24 -6 22 -27z m707 -87 c25 -31 20 -58 -15
-90 -33 -30 -58 -29 -83 3 -26 34 -27 68 -1 94 29 29 74 26 99 -7z m3511 -43
c0 -56 -71 -76 -90 -26 -10 26 5 55 33 65 32 13 57 -5 57 -39z m611 11 c-17
-31 -68 -54 -105 -47 -39 7 -76 32 -76 51 0 11 7 11 36 3 40 -10 130 -2 140
14 11 18 16 0 5 -21z m789 -111 c39 -21 32 -127 -10 -150 -72 -39 -144 33
-116 116 12 37 84 57 126 34z m-5706 -51 c19 -23 33 -45 31 -50 -3 -4 -20 -11
-38 -14 -54 -12 -103 -42 -158 -97 -101 -101 -148 -203 -195 -426 -45 -210
-28 -519 40 -726 18 -55 38 -121 44 -146 6 -25 37 -92 68 -150 89 -164 154
-293 154 -304 0 -16 -56 53 -97 119 -20 33 -40 62 -44 65 -16 11 -120 230
-154 325 -61 167 -64 177 -86 310 -30 183 -23 431 15 585 26 106 76 243 105
290 52 84 232 260 266 260 7 0 29 -19 49 -41z m655 -95 c39 -15 71 -60 71 -99
0 -31 -31 -82 -56 -94 -69 -31 -138 -1 -170 75 -14 33 -13 39 4 72 31 61 79
75 151 46z m3887 -34 c21 -16 75 -54 120 -84 148 -98 264 -261 341 -481 42
-117 64 -241 70 -396 14 -360 -85 -642 -313 -887 -90 -97 -152 -142 -304 -217
-156 -78 -206 -90 -375 -90 -128 0 -147 3 -220 29 -145 52 -260 118 -323 185
-53 57 -156 260 -140 276 9 9 78 -19 78 -32 0 -7 4 -13 8 -13 5 0 31 -35 57
-77 72 -113 126 -163 236 -217 134 -65 264 -90 399 -76 112 11 162 28 282 93
258 141 447 390 515 677 25 103 28 134 28 295 0 197 -10 265 -57 410 -37 109
-56 148 -120 245 -60 90 -134 168 -206 217 l-53 37 -55 -27 c-71 -35 -96 -34
-128 4 -87 103 50 214 160 129z m-4066 -60 c0 -12 -21 -26 -67 -45 -116 -49
-212 -123 -305 -238 -98 -120 -150 -230 -200 -422 -18 -71 -20 -99 -15 -240 6
-174 18 -234 83 -400 88 -224 209 -381 378 -489 152 -98 246 -143 361 -173
100 -25 126 -28 280 -28 187 0 228 9 328 76 74 49 239 218 266 273 30 62 60
161 52 172 -3 5 -23 22 -43 37 -34 25 -38 33 -38 70 0 34 9 54 43 99 45 62 67
76 42 28 -14 -27 -14 -29 2 -24 10 3 6 -2 -8 -10 -31 -18 -48 -49 -21 -39 9 4
21 11 25 17 5 6 5 1 2 -11 -3 -13 -4 -23 0 -23 3 0 10 10 15 23 7 17 9 18 9 5
1 -10 8 -18 16 -18 8 0 13 -6 11 -12 -1 -7 -1 -10 1 -5 9 15 25 6 19 -10 -7
-17 -6 -17 11 0 15 15 16 19 4 27 -10 5 1 7 30 4 42 -4 43 -3 12 6 -45 14 -41
20 8 14 27 -3 39 -1 34 6 -3 5 -4 10 -1 10 3 0 10 -8 15 -19 10 -18 -17 -111
-49 -171 -6 -12 -20 -47 -31 -77 -68 -200 -307 -449 -490 -512 -147 -50 -358
-53 -529 -8 -134 35 -314 123 -416 203 -189 147 -258 227 -348 403 -112 218
-150 386 -144 626 4 148 7 168 37 260 69 208 147 343 271 465 83 83 175 141
268 170 60 19 82 14 82 -20z m5019 -98 c15 -11 70 -35 122 -54 270 -97 467
-328 563 -661 53 -182 58 -370 15 -581 -59 -293 -254 -617 -510 -848 -180
-163 -532 -330 -799 -379 -85 -16 -298 -15 -425 0 -383 48 -827 258 -1021 485
-193 224 -311 449 -404 767 -47 163 -60 270 -39 317 7 17 18 28 23 24 6 -3 26
-8 45 -11 l35 -6 22 -110 c33 -165 132 -453 205 -598 93 -183 300 -420 454
-519 97 -63 156 -91 295 -143 232 -86 377 -114 594 -115 251 0 391 34 651 160
148 71 234 132 370 261 250 238 405 549 436 873 31 334 -84 660 -307 866 -62
57 -209 140 -248 140 -12 0 -35 -14 -52 -31 -39 -41 -75 -59 -119 -59 -75 0
-135 61 -135 138 0 33 7 47 37 77 37 37 38 37 101 32 42 -3 74 -12 91 -25z
m-4244 -162 c3 -5 1 -10 -4 -10 -6 0 -11 5 -11 10 0 6 2 10 4 10 3 0 8 -4 11
-10z m-48 -115 c0 -8 -4 -15 -9 -15 -4 0 -8 6 -8 14 0 9 -8 13 -22 10 -21 -4
-21 -4 -3 4 25 11 42 6 42 -13z m-759 -65 c27 -17 32 -25 32 -59 0 -54 -27
-85 -75 -85 -79 0 -110 88 -49 142 31 27 50 28 92 2z m707 0 c8 -13 -15 -13
-35 0 -12 8 -11 10 7 10 12 0 25 -4 28 -10z m3505 -20 c12 -12 20 -33 20 -54
0 -28 -6 -38 -34 -55 -42 -26 -54 -26 -83 1 -23 21 -31 71 -15 94 24 36 83 43
112 14z m-3206 -9 c4 -5 -3 -7 -14 -4 -23 6 -26 13 -6 13 8 0 17 -4 20 -9z
m548 -26 c-2 -14 -8 -25 -13 -26 -33 -4 -49 -2 -49 6 1 6 11 9 24 7 17 -2 25
3 29 17 7 30 15 26 9 -4z m3821 -57 c125 -133 170 -261 192 -543 13 -165 -34
-392 -115 -560 -119 -248 -372 -518 -533 -571 -29 -9 -113 -46 -187 -81 -287
-137 -503 -208 -524 -174 -8 12 101 66 271 137 46 19 146 66 224 104 78 39
152 70 166 70 37 0 199 114 283 200 103 105 150 168 208 285 120 239 165 461
131 650 -6 33 -12 87 -13 120 -5 105 -85 263 -163 322 -20 16 -48 39 -62 52
-24 23 -24 25 -6 32 51 20 78 10 128 -43z m-6703 -40 c36 -18 49 -33 64 -69
34 -84 0 -156 -85 -179 -38 -11 -48 -9 -88 10 -25 12 -47 18 -49 12 -1 -5 -32
-54 -68 -108 -115 -173 -173 -313 -214 -516 -24 -121 -28 -272 -10 -413 6 -49
13 -109 16 -133 10 -76 113 -391 139 -422 20 -24 35 -81 27 -97 -7 -12 -12
-10 -24 9 -39 60 -107 210 -128 283 -13 44 -31 105 -41 135 -71 224 -60 610
27 875 28 87 103 239 159 323 19 30 35 58 35 62 0 5 9 15 21 24 19 13 20 18 9
50 -13 41 0 104 27 128 59 51 116 59 183 26z m2374 14 c2 -4 -5 -9 -17 -9 -17
-2 -19 0 -7 7 18 12 18 12 24 2z m3255 -25 c30 -48 81 -211 88 -281 5 -49 12
-66 41 -98 39 -43 38 -65 -3 -112 -17 -20 -25 -41 -25 -66 0 -63 -47 -231 -89
-315 -50 -102 -144 -228 -223 -299 -140 -127 -420 -219 -535 -175 -22 8 -24
12 -13 19 8 6 29 10 46 10 46 0 180 37 264 72 160 68 254 148 356 304 75 115
104 188 129 337 l16 88 -26 30 c-33 40 -32 70 6 110 l30 32 -39 126 c-22 69
-50 150 -63 179 -20 46 -21 54 -9 62 23 15 27 13 49 -23z m-3644 -17 c3 -5 1
-10 -4 -10 -6 0 -11 5 -11 10 0 6 2 10 4 10 3 0 8 -4 11 -10z m407 -24 c7 4 8
2 4 -4 -4 -6 -13 -9 -21 -5 -9 3 -15 -1 -15 -8 0 -11 -3 -11 -10 1 -5 8 -10
20 -10 25 0 6 5 3 10 -5 8 -12 10 -12 10 5 1 19 1 19 11 2 6 -9 15 -14 21 -11z
m3873 -5 c89 -50 20 -212 -79 -187 -46 11 -99 68 -99 105 0 41 31 83 74 98 37
13 59 10 104 -16z m-4311 4 c-4 -8 -10 -13 -14 -10 -5 3 -11 1 -15 -5 -3 -5
-1 -10 4 -10 6 0 11 -5 11 -11 0 -8 -5 -8 -15 1 -25 20 -15 36 32 49 1 1 0 -6
-3 -14z m-820 -11 c20 -20 20 -34 1 -34 -63 0 -155 -218 -155 -365 0 -159 76
-404 164 -530 34 -48 141 -178 170 -204 28 -26 34 -51 13 -51 -28 0 -142 109
-203 195 -125 174 -184 330 -199 530 -9 105 5 180 54 307 39 98 72 147 111
161 24 9 28 8 44 -9z m1250 -29 c-4 -8 -8 -15 -10 -15 -2 0 -4 7 -4 15 0 8 4
15 10 15 5 0 7 -7 4 -15z m-390 -3 c3 -5 -1 -9 -9 -9 -8 0 -12 4 -9 9 3 4 7 8
9 8 2 0 6 -4 9 -8z m2811 -61 c-3 -6 -11 -11 -16 -11 -5 0 -4 6 3 14 14 16 24
13 13 -3z m-2897 -21 c-9 -14 -14 -16 -20 -7 -6 9 -8 8 -8 -2 0 -8 -3 -12 -6
-8 -12 11 3 33 25 34 18 1 19 -1 9 -17z m2947 -21 c11 -16 1 -19 -13 -3 -7 8
-8 14 -3 14 5 0 13 -5 16 -11z m-2884 -22 c-10 -9 -11 -8 -5 6 3 10 9 15 12
12 3 -3 0 -11 -7 -18z m4799 -25 c32 -40 26 -78 -17 -101 -35 -18 -72 -13 -98
14 -42 41 -26 98 32 114 38 10 60 3 83 -27z m-4797 -27 c-3 -9 -8 -14 -10 -11
-3 3 -2 9 2 15 9 16 15 13 8 -4z m3497 -7 c29 -31 25 -62 -11 -92 -37 -31 -39
-32 -73 -5 -33 26 -35 70 -4 99 28 26 62 26 88 -2z m-4050 -65 c66 -34 110
-87 117 -142 10 -75 -39 -158 -113 -187 l-46 -19 4 -170 c4 -167 5 -172 35
-235 18 -36 42 -77 55 -91 42 -45 137 -118 188 -144 66 -33 75 -50 24 -43 -65
9 -136 49 -197 111 -99 100 -129 204 -127 437 2 146 3 140 -16 140 -31 0 -91
42 -117 83 -65 100 -43 192 62 258 55 36 64 36 131 2z m1801 -56 c30 8 42 -31
35 -116 -28 -322 -80 -557 -211 -946 -141 -422 -325 -758 -609 -1115 -73 -91
-378 -394 -461 -457 -33 -26 -64 -51 -70 -58 -5 -6 -18 -14 -27 -18 -13 -4
-18 -18 -18 -44 0 -28 -8 -45 -28 -65 -51 -50 -338 -173 -507 -217 -111 -29
-370 -45 -524 -32 -322 28 -638 174 -817 377 -203 229 -293 501 -264 798 16
169 66 311 174 495 101 171 320 379 429 406 25 7 27 5 27 -21 0 -38 -5 -44
-71 -96 -164 -127 -344 -368 -411 -552 -62 -167 -70 -211 -64 -336 16 -369
220 -675 566 -850 83 -41 200 -79 330 -106 130 -27 411 -25 546 4 140 30 285
82 441 158 73 35 135 64 139 64 20 0 64 63 70 100 4 25 3 41 -2 38 -5 -3 -45
-22 -89 -43 -229 -109 -331 -149 -470 -187 -135 -36 -165 -41 -302 -45 -174
-6 -238 2 -398 54 -234 74 -411 187 -542 343 -151 180 -222 425 -178 611 19
83 75 229 87 229 19 0 19 -52 -1 -93 -12 -24 -21 -53 -21 -65 0 -12 -6 -22
-14 -22 -11 0 -13 -16 -10 -77 7 -124 23 -190 70 -297 114 -259 283 -412 574
-519 150 -55 232 -69 420 -69 117 0 179 4 215 14 28 9 91 27 140 41 50 15 177
69 285 122 197 97 265 120 280 95 6 -10 20 -1 55 31 26 24 53 47 60 52 20 11
231 241 304 332 73 90 163 216 231 325 80 129 237 440 273 545 20 55 46 129
60 165 70 185 166 591 201 854 25 188 34 214 64 197 8 -5 23 -6 33 -4z m449
-3 c0 -6 11 -10 24 -9 20 3 25 -3 34 -38 16 -61 30 -205 42 -432 20 -365 110
-773 275 -1245 67 -193 185 -447 274 -590 181 -290 421 -550 645 -698 328
-216 593 -306 901 -306 266 0 487 71 734 237 99 66 268 235 326 325 65 102
128 239 162 352 26 87 28 108 27 245 -1 169 -19 255 -74 366 -57 111 -117 183
-195 231 -72 45 -82 45 -124 -1 -35 -38 -42 -41 -89 -41 -44 0 -53 4 -76 31
-44 52 -28 142 32 172 55 28 79 28 144 1 187 -78 249 -122 321 -228 116 -171
167 -349 167 -582 0 -119 -34 -255 -104 -414 -93 -212 -268 -413 -490 -564
-130 -88 -342 -176 -514 -213 -105 -22 -134 -24 -282 -20 -300 8 -531 80 -830
259 -381 228 -691 583 -929 1064 -38 76 -84 177 -104 224 -88 213 -190 589
-266 980 -50 258 -106 865 -83 893 14 16 52 17 52 1z m2675 -11 c-2 -16 -6
-69 -9 -120 -14 -228 -98 -474 -235 -686 -37 -56 -64 -111 -68 -134 -7 -49
-29 -73 -64 -73 -20 0 -45 -16 -86 -53 -201 -183 -401 -265 -668 -274 -127 -4
-149 -2 -240 21 -143 37 -335 133 -335 168 0 14 53 4 165 -32 403 -127 646
-103 939 93 88 59 137 107 157 155 15 33 25 44 49 48 25 5 41 23 91 103 151
240 239 502 239 713 0 47 3 88 7 91 3 4 19 7 34 7 25 0 28 -3 24 -27z m-188
11 c27 -7 27 -9 -18 -236 -58 -293 -149 -471 -354 -687 -93 -99 -267 -208
-406 -257 -95 -33 -273 -47 -263 -21 3 9 31 24 62 33 157 46 192 58 257 91
149 76 282 184 401 325 152 184 254 453 254 674 0 80 1 84 23 84 12 0 32 -3
44 -6z m-2290 -46 c-3 -8 -6 -5 -6 6 -1 11 2 17 5 13 3 -3 4 -12 1 -19z m-376
-461 c7 -498 12 -545 93 -917 53 -240 94 -439 105 -505 37 -229 45 -522 17
-675 -45 -248 -207 -605 -360 -792 -44 -54 -55 -49 -53 20 1 31 -2 110 -7 174
l-9 118 32 65 c27 54 31 73 26 105 -4 24 -11 37 -18 34 -22 -9 -84 -98 -152
-219 -38 -66 -94 -154 -125 -195 -31 -41 -71 -97 -90 -125 -19 -27 -75 -99
-126 -160 -322 -385 -751 -604 -1140 -582 -298 17 -536 154 -647 374 -79 155
-86 367 -18 501 26 50 95 112 125 112 13 0 43 7 67 15 60 21 112 12 144 -27
48 -57 20 -151 -50 -164 -48 -9 -78 6 -113 55 l-29 40 -25 -27 c-37 -39 -55
-79 -68 -152 -20 -112 7 -241 71 -341 39 -61 145 -160 212 -199 172 -99 447
-117 682 -43 105 33 273 119 382 196 138 98 388 362 444 469 26 50 24 53 -14
24 -89 -68 -210 -105 -413 -127 -227 -25 -485 38 -612 149 -76 67 -62 67 111
3 175 -65 264 -83 412 -84 164 0 316 36 430 100 44 25 82 49 85 53 3 4 28 19
57 34 35 17 65 43 91 79 22 28 57 74 79 100 34 41 42 60 52 122 7 40 30 131
52 202 69 221 147 543 190 783 12 69 27 141 34 160 l12 35 14 -25 c20 -36 17
-249 -5 -375 -30 -170 -115 -482 -177 -652 -13 -35 -20 -65 -17 -68 3 -3 18
-3 33 1 22 5 34 21 61 78 38 81 151 463 162 546 14 106 47 41 37 -73 -15 -181
-60 -352 -135 -507 l-31 -65 5 -155 c6 -151 5 -154 -10 -105 -8 28 -19 64 -23
80 -7 29 -8 29 -14 -15 -6 -39 8 -239 18 -248 2 -2 14 22 28 52 14 30 39 75
56 99 16 24 59 115 96 203 88 212 105 299 105 526 0 293 -23 431 -175 1072
-19 81 -47 239 -61 350 -23 178 -26 239 -28 534 -1 261 2 334 12 341 7 4 11
14 9 22 -2 8 -2 10 1 5 2 -4 8 -3 12 4 6 10 27 17 58 19 6 1 12 9 12 18 0 9 3
13 7 9 4 -4 10 -211 14 -459z m-3411 401 c11 -12 20 -28 20 -36 0 -8 -32 -46
-71 -86 -119 -119 -131 -163 -132 -466 0 -213 4 -246 59 -442 l18 -67 -24 -26
c-13 -14 -27 -25 -30 -25 -13 0 -61 120 -87 218 -24 87 -26 115 -27 282 0 171
2 193 27 288 35 129 55 182 72 182 8 0 11 8 8 20 -8 30 3 62 34 98 15 17 36
43 46 57 22 31 59 32 87 3z m1968 -35 c6 -16 17 -37 27 -48 16 -20 16 -20 5 3
-7 15 -7 22 0 22 5 0 10 -4 10 -10 0 -5 12 -10 26 -10 17 0 23 4 18 13 -6 9
-3 8 9 -1 10 -9 15 -24 12 -42 -2 -22 0 -27 11 -23 8 3 14 13 14 22 0 14 -2
14 -10 1 -5 -8 -10 -10 -10 -5 0 6 5 17 10 25 7 11 10 11 10 2 0 -7 5 -10 11
-6 8 4 9 -1 5 -17 -7 -22 -6 -23 7 -6 13 15 15 16 21 2 3 -8 16 -15 28 -14 22
1 22 1 -2 9 -23 8 -22 8 7 7 28 -1 32 -4 27 -20 -4 -14 -3 -17 6 -12 9 6 11 4
5 -4 -5 -9 -10 -10 -18 -2 -6 6 -22 11 -34 11 -20 0 -22 -2 -11 -14 7 -8 15
-10 16 -5 2 5 8 9 13 9 4 0 6 -7 3 -14 -5 -13 -1 -13 25 -3 16 6 27 16 24 21
-4 6 4 2 17 -9 22 -19 23 -19 17 -1 -5 13 -3 17 8 13 8 -4 17 -2 20 2 2 5 16
11 30 13 16 4 22 1 17 -6 -4 -6 -7 -13 -7 -16 -1 -21 -51 -84 -86 -107 -59
-39 -150 -38 -228 1 -94 48 -181 146 -181 205 0 22 46 37 80 26 11 -4 20 -2
20 4 0 21 18 10 28 -16z m2938 19 c20 -12 -23 -110 -67 -152 -21 -20 -70 -54
-108 -74 -55 -29 -80 -36 -125 -36 -97 0 -155 37 -199 129 -20 40 -21 44 -6
35 20 -12 79 -14 76 -2 -1 6 4 13 11 15 8 3 10 -2 6 -14 -3 -10 1 -8 11 7 13
21 15 22 13 5 -6 -37 14 -46 44 -18 24 23 29 24 45 12 11 -9 14 -10 9 -1 -4 7
-2 12 8 12 8 0 17 6 19 13 3 7 6 5 6 -5 1 -10 -4 -18 -10 -18 -5 0 -7 -4 -4
-10 9 -14 34 12 27 29 -3 8 -1 12 5 8 5 -4 19 0 29 7 12 10 23 11 31 5 7 -7
14 -6 19 2 5 8 3 9 -6 4 -9 -5 -11 -4 -6 3 4 7 13 12 21 12 7 0 16 7 19 16 4
9 13 14 21 10 8 -3 15 -1 15 4 0 12 79 13 96 2z m-2881 -33 c11 -16 1 -19 -13
-3 -7 8 -8 14 -3 14 5 0 13 -5 16 -11z m2525 -69 c0 -5 -5 -10 -11 -10 -5 0
-7 5 -4 10 3 6 8 10 11 10 2 0 4 -4 4 -10z m-186 -118 c59 -67 61 -100 10
-148 -33 -32 -90 -54 -174 -69 -33 -6 -37 -4 -51 27 -24 49 -81 239 -75 246 3
3 6 -3 6 -14 1 -19 1 -19 15 0 15 19 15 19 15 -1 0 -39 28 -56 84 -50 28 2 61
1 74 -4 17 -6 22 -5 22 6 0 8 7 15 15 15 8 0 15 5 15 11 0 6 -7 9 -15 5 -8 -3
-15 -1 -15 4 0 6 5 10 11 10 6 0 8 7 4 18 -7 19 -7 19 59 -56z m-84 23 c0 -5
-5 -3 -10 5 -5 8 -10 20 -10 25 0 6 5 3 10 -5 5 -8 10 -19 10 -25z m2210 -30
c6 -8 10 -22 8 -32 -4 -24 -53 -41 -76 -27 -39 25 -20 74 28 74 15 0 33 -7 40
-15z m-1115 -26 c-6 -16 -223 -154 -230 -147 -3 2 20 20 51 39 31 19 83 55
117 81 63 48 72 51 62 27z m-3781 -86 c21 -29 35 -53 32 -53 -11 0 -54 53 -76
94 -27 49 -8 31 44 -41z m-1529 -27 c13 -19 14 -29 5 -45 -22 -41 -110 -19
-110 28 0 46 78 58 105 17z m5016 -5 c48 -49 34 -114 -30 -141 -36 -15 -68 -8
-99 20 -32 30 -28 72 9 115 40 45 78 47 120 6z m-3346 -41 c38 -15 64 -50 65
-88 0 -30 7 -37 84 -86 46 -30 110 -68 142 -84 110 -57 125 -84 20 -38 -57 25
-185 109 -224 146 l-23 22 -23 -21 c-35 -33 -75 -36 -116 -9 -30 20 -35 30
-38 67 -4 50 16 87 50 94 13 2 26 5 30 6 4 0 19 -4 33 -9z m2073 -71 c8 -24
31 -91 52 -149 20 -58 47 -148 59 -200 61 -260 223 -612 381 -825 135 -182
329 -364 483 -453 295 -172 480 -230 692 -219 193 10 320 60 415 164 64 69 93
133 98 211 7 108 -45 187 -161 243 -51 25 -64 44 -45 66 26 31 169 -27 226
-91 37 -42 62 -120 62 -191 0 -277 -199 -458 -544 -495 -140 -15 -260 -1 -411
47 -162 52 -401 178 -530 278 -22 17 -51 38 -65 47 -36 24 -158 142 -226 218
-70 79 -216 300 -277 418 -99 192 -134 299 -207 632 -36 164 -52 356 -30 348
8 -2 20 -24 28 -49z m1074 -27 c-19 -16 -55 -39 -80 -52 -26 -14 -69 -37 -95
-52 -26 -16 -54 -28 -62 -28 -21 0 -19 19 3 26 60 19 145 60 197 94 70 47 84
51 37 12z m1523 -17 c14 -13 25 -29 25 -35 0 -20 -49 -60 -74 -60 -31 0 -66
36 -66 66 0 27 34 54 68 54 12 0 34 -11 47 -25z m-3605 -232 c-83 -253 -286
-562 -521 -796 -204 -202 -457 -344 -749 -419 -105 -28 -129 -30 -285 -31
-190 0 -267 9 -470 58 -202 48 -344 113 -495 225 -100 75 -305 292 -316 335
-7 27 28 85 50 85 7 0 34 -32 60 -70 106 -155 358 -343 561 -419 86 -32 244
-68 379 -86 447 -58 814 60 1176 380 65 58 139 129 164 157 65 74 242 329 347
498 49 79 89 140 89 135 0 -6 8 5 17 23 29 59 25 26 -7 -75z m-2303 11 c85
-55 31 -224 -72 -224 -60 0 -134 65 -142 126 -6 46 21 88 71 110 37 17 109 11
143 -12z m5705 9 c10 -9 18 -27 18 -41 0 -59 -74 -85 -106 -37 -38 58 36 125
88 78z m888 -71 c121 -60 96 -247 -36 -267 -57 -8 -100 12 -139 68 -54 75 -35
155 45 198 43 24 85 24 130 1z m-3520 -184 c13 -57 16 -85 8 -89 -7 -4 -8 -18
-3 -35 5 -20 9 -24 13 -14 7 19 33 -90 26 -112 -3 -9 0 -19 5 -23 7 -4 8 1 4
12 -3 10 -3 15 1 11 4 -3 19 -48 33 -100 53 -195 97 -342 131 -440 68 -192 93
-387 67 -523 -9 -49 -23 -130 -31 -180 -22 -133 -44 -208 -118 -397 -25 -64
-46 -130 -46 -146 0 -54 74 -145 148 -183 101 -51 270 -29 324 42 55 71 67 84
73 77 15 -14 -9 -73 -46 -113 -22 -24 -66 -55 -102 -71 -53 -25 -74 -29 -142
-28 -98 1 -161 29 -225 101 -47 53 -90 135 -90 172 0 13 29 110 64 215 167
495 180 646 81 983 -24 81 -54 180 -68 218 -13 39 -32 111 -42 160 -10 50 -22
98 -27 107 -12 25 -35 144 -37 198 -1 20 -3 22 -12 10 -8 -12 -10 -9 -6 12 2
15 1 25 -4 23 -10 -7 -22 111 -16 150 3 17 6 36 6 44 2 30 13 0 31 -81z
m-2822 14 c88 -110 170 -190 256 -246 198 -131 348 -182 620 -211 164 -17 272
-19 330 -6 21 5 48 6 60 1 26 -10 21 -12 -99 -41 -80 -19 -107 -21 -245 -15
-359 14 -669 148 -868 374 -95 109 -145 180 -138 197 10 27 31 14 84 -53z
m3392 -97 c38 -71 78 -155 89 -185 57 -154 246 -384 413 -502 101 -72 286
-164 373 -184 88 -21 111 -34 102 -58 -21 -54 -131 -32 -329 65 -86 43 -226
135 -277 183 -65 61 -187 204 -222 262 -136 222 -229 428 -243 539 -6 47 -6
49 9 30 9 -11 47 -78 85 -150z m-955 56 c-12 -95 -29 -150 -88 -301 -99 -251
-221 -443 -382 -600 -87 -85 -212 -228 -271 -310 -52 -73 -301 -309 -423 -402
-37 -28 -81 -37 -81 -16 0 24 82 119 191 219 256 234 380 381 504 593 11 19
50 85 87 148 36 62 72 125 79 141 7 15 16 27 20 27 4 0 13 16 20 34 7 19 16
33 20 31 4 -3 9 4 12 15 3 11 1 18 -4 14 -5 -3 10 32 33 78 23 46 43 90 45 98
1 8 7 16 13 18 5 2 7 8 4 14 -4 6 -2 13 3 17 6 3 20 23 31 44 13 26 21 33 25
23 3 -8 2 -16 -4 -18 -5 -2 -12 -21 -15 -43 -4 -22 -13 -46 -22 -52 -9 -7 -11
-13 -5 -13 28 0 -156 -360 -248 -485 -50 -67 -110 -167 -107 -176 6 -19 80 62
162 178 31 43 77 107 103 143 82 115 171 308 219 475 10 33 20 65 24 70 4 6
10 27 14 48 5 25 12 37 24 37 14 0 14 2 3 9 -8 5 -10 14 -6 22 14 21 26 -30
20 -80z m3987 -152 c80 -158 126 -384 114 -558 -11 -164 -64 -361 -96 -361
-15 0 -12 51 11 184 44 246 22 472 -68 691 -44 107 -50 152 -20 143 6 -2 33
-47 59 -99z m-3891 -71 c25 -96 24 -111 -10 -285 -92 -458 -332 -888 -651
-1164 -132 -114 -292 -207 -480 -279 -248 -96 -398 -121 -593 -101 -89 9 -125
17 -134 29 -29 36 -18 39 175 45 262 8 387 36 585 132 417 202 704 511 876
942 54 136 121 380 171 628 24 117 30 138 37 132 2 -3 13 -38 24 -79z m-2609
31 c53 -28 54 -127 1 -169 -38 -29 -81 -26 -126 11 -31 25 -37 37 -37 69 0 56
44 100 100 100 23 0 50 -5 62 -11z m1708 -11 c0 -16 -116 -139 -153 -163 -34
-22 -45 -14 -23 17 16 22 163 158 171 158 3 0 5 -6 5 -12z m2006 -114 c21 -15
78 -65 126 -112 102 -99 114 -109 231 -168 112 -57 194 -76 332 -76 114 -1
164 9 361 66 63 19 108 26 145 24 l54 -3 -60 -29 c-127 -59 -422 -126 -561
-126 -117 0 -313 68 -419 146 -27 20 -76 66 -107 103 -32 36 -80 91 -108 121
-70 78 -68 103 6 54z m-1856 -84 c0 -24 -61 -130 -81 -140 -31 -17 -34 -5 -10
35 11 20 21 43 21 51 0 17 44 64 60 64 5 0 10 -5 10 -10z m-607 -7 c-7 -2 -19
-2 -25 0 -7 3 -2 5 12 5 14 0 19 -2 13 -5z m-968 -63 c30 -27 81 -63 113 -79
l57 -29 235 -1 c214 -1 396 8 523 25 53 8 63 -5 20 -26 -116 -54 -318 -78
-505 -60 -118 11 -121 11 -144 -11 -17 -15 -30 -20 -48 -15 -15 3 -26 11 -26
16 0 5 -30 23 -67 40 -37 17 -81 42 -99 55 -18 14 -36 25 -40 25 -3 0 -22 -13
-41 -30 -38 -34 -63 -37 -98 -14 -46 30 -41 118 8 142 39 19 56 13 112 -38z
m1462 -108 c-9 -10 -32 -50 -51 -88 -25 -50 -71 -109 -171 -219 -76 -82 -159
-180 -186 -216 -47 -64 -86 -101 -102 -99 -5 1 -15 -7 -23 -17 -7 -10 -14 -14
-14 -10 0 5 11 23 25 41 14 18 22 36 18 39 -3 4 -1 7 4 7 6 0 13 -6 16 -12 2
-7 7 5 11 27 9 49 118 197 220 299 39 39 112 115 161 169 50 53 94 97 99 97 5
0 2 -8 -7 -18z m4304 -72 c5 0 28 -17 51 -37 98 -89 158 -329 123 -495 -54
-261 -227 -499 -486 -671 -133 -89 -262 -146 -416 -184 -92 -23 -129 -27 -248
-27 -119 0 -156 4 -248 27 -107 27 -166 51 -219 90 -37 27 -45 16 -25 -34 16
-40 14 -70 -3 -52 -17 16 -101 184 -98 194 2 5 18 -1 37 -15 40 -30 251 -99
371 -122 62 -12 120 -15 215 -11 113 4 146 9 255 42 212 64 375 161 535 320
195 194 284 387 272 588 -7 127 -35 200 -108 290 -32 40 -59 77 -59 83 0 16
12 25 28 19 7 -3 18 -5 23 -5z m-6717 -80 c51 -42 104 -115 93 -127 -3 -3 -31
12 -62 32 -53 35 -79 63 -119 127 -17 27 -17 27 8 20 14 -4 50 -27 80 -52z
m3014 30 c1 -16 -12 -47 -38 -85 -45 -65 -45 -66 -21 54 6 29 11 56 11 58 0 2
10 3 23 1 15 -2 23 -11 25 -28z m1293 -301 c112 -152 185 -244 222 -281 13
-13 49 -59 79 -103 31 -44 102 -127 157 -184 55 -57 105 -117 110 -133 10 -28
10 -28 -15 -15 -31 16 -144 126 -144 140 0 5 -37 46 -83 91 -177 173 -361 400
-444 547 -27 47 -38 82 -34 113 2 18 50 -37 152 -175z m1202 130 c31 -14 47
-48 47 -100 0 -85 -93 -129 -152 -74 -55 51 -49 137 12 167 41 21 60 22 93 7z
m-5286 -29 c15 0 154 -88 165 -104 10 -15 -13 -26 -42 -19 -14 4 -51 20 -82
36 -52 26 -56 31 -48 53 7 18 6 24 -4 24 -8 0 -17 8 -21 18 -5 14 -4 15 6 5 7
-7 19 -13 26 -13z m2658 -10 c9 -28 -12 -60 -40 -60 -37 0 -40 19 -9 51 33 34
41 36 49 9z m-2675 -21 c0 -14 -16 -11 -29 5 -10 12 -8 13 8 9 12 -3 21 -9 21
-14z m6474 -31 c14 -23 -2 -52 -31 -56 -23 -4 -58 42 -49 64 8 21 66 14 80 -8z
m-4780 -46 c3 -5 -3 -15 -12 -23 -76 -64 -193 -121 -342 -165 -112 -33 -137
-37 -240 -37 -63 -1 -134 5 -157 11 -73 21 -94 63 -44 88 20 10 28 8 57 -11
69 -47 202 -41 389 16 55 17 123 34 150 39 50 8 133 48 155 75 14 16 36 20 44
7z m886 -7 c16 -19 5 -49 -31 -79 -25 -21 -33 -40 -50 -118 -11 -51 -25 -111
-32 -132 -12 -39 -40 -67 -53 -53 -6 6 11 76 25 102 3 6 6 15 7 22 4 26 47
149 55 158 5 5 9 27 9 50 0 59 39 87 70 50z m-1999 -64 c23 -24 29 -38 29 -73
0 -24 6 -52 13 -61 26 -35 209 -116 310 -137 91 -18 229 -14 337 10 170 38
181 40 178 22 -2 -9 -23 -26 -48 -39 -144 -73 -407 -85 -595 -26 -68 21 -191
82 -219 108 -16 15 -29 19 -42 14 -39 -16 -66 -9 -100 25 -39 39 -45 86 -19
136 19 37 41 49 88 50 29 0 45 -7 68 -29z m-661 -47 c0 4 30 -21 68 -57 79
-77 116 -107 132 -107 6 0 8 -4 5 -10 -3 -5 -1 -10 5 -10 6 0 70 -29 143 -64
106 -52 152 -69 237 -85 155 -30 283 -49 389 -57 85 -6 92 -8 75 -21 -32 -25
-363 -13 -479 17 -169 43 -356 140 -476 248 -66 59 -131 141 -123 154 4 6 10
5 15 -3 5 -8 9 -10 9 -5z m4428 -59 c37 -30 101 -94 142 -142 103 -120 140
-153 255 -232 150 -102 178 -116 331 -165 345 -110 563 -115 774 -18 43 20 68
27 75 20 14 -14 -26 -45 -110 -84 -129 -60 -169 -69 -300 -69 -147 0 -232 17
-459 93 -148 49 -184 65 -284 129 -130 83 -226 171 -315 288 -33 44 -63 82
-66 85 -30 26 -121 131 -121 139 0 18 8 13 78 -44z m1980 -13 c19 -25 15 -79
-9 -101 -25 -23 -70 -35 -99 -26 -25 8 -40 60 -28 96 18 53 103 72 136 31z
m-3438 3 c0 -8 -4 -15 -10 -15 -5 0 -7 7 -4 15 4 8 8 15 10 15 2 0 4 -7 4 -15z
m0 -48 c0 -7 -7 -22 -15 -33 -13 -17 -13 -16 -3 14 13 34 18 40 18 19z m-50
-52 c-8 -20 -6 -23 6 -18 13 5 14 2 5 -13 -30 -53 -83 -215 -101 -311 -44
-231 -60 -290 -84 -312 -52 -49 -58 -11 -27 161 41 219 61 280 136 413 51 91
85 132 65 80z m1824 -55 c34 -31 83 -116 73 -127 -15 -14 -104 90 -142 167
l-18 35 24 -20 c13 -10 41 -35 63 -55z m-896 44 c17 -12 22 -24 20 -47 -3 -28
-7 -32 -35 -35 -25 -3 -35 2 -49 22 -15 24 -15 28 0 51 19 29 33 31 64 9z
m2108 -86 c-19 -43 -80 -103 -141 -137 -57 -32 -193 -83 -275 -102 -84 -20
-250 -15 -345 10 -132 35 -273 99 -283 129 -6 20 62 14 130 -12 35 -12 110
-35 168 -51 93 -24 117 -27 210 -22 71 4 134 14 194 32 106 31 152 54 265 129
46 31 85 56 87 56 2 0 -3 -14 -10 -32z m-1922 -100 c23 -32 20 -55 -10 -74
-58 -38 -110 22 -63 72 28 30 53 31 73 2z m-1783 -38 c43 -24 4 -110 -49 -110
-33 0 -62 27 -62 57 0 49 62 79 111 53z m3859 -36 c26 -22 31 -33 28 -63 -2
-27 -11 -40 -37 -58 -43 -29 -65 -29 -91 -1 -28 30 -27 94 2 125 28 30 59 29
98 -3z m-3496 -142 c18 -29 -75 -350 -117 -402 -18 -24 -106 -84 -113 -78 -3
3 14 37 37 74 55 91 98 186 105 238 3 22 15 71 26 109 15 51 24 67 38 67 11 0
21 -4 24 -8z m1243 -14 c30 -28 29 -52 -3 -77 -31 -24 -44 -26 -66 -8 -30 23
-31 55 -4 82 31 31 43 31 73 3z m386 -86 c15 -15 22 -35 22 -65 1 -34 10 -54
47 -105 85 -114 118 -236 118 -433 0 -167 -21 -261 -90 -404 -84 -173 -195
-282 -373 -365 -160 -75 -205 -85 -372 -85 -179 0 -246 15 -378 83 -168 88
-280 203 -371 381 -103 204 -134 355 -88 437 13 23 17 13 51 -104 72 -251 182
-435 329 -553 103 -82 150 -108 235 -131 335 -92 714 63 861 352 137 268 136
547 -3 777 -24 41 -28 43 -72 43 -63 0 -113 33 -117 79 -5 52 6 80 41 102 43
27 128 22 160 -9z m-3612 -273 c15 -28 -9 -73 -42 -77 -31 -4 -55 34 -45 71
10 40 67 43 87 6z m-355 2 c35 -21 74 -93 74 -134 0 -40 -30 -106 -53 -118
-71 -39 -140 -28 -199 31 -32 32 -38 44 -38 81 0 120 121 198 216 140z m2713
-189 c12 -136 38 -239 87 -351 29 -64 110 -176 162 -223 53 -47 167 -114 237
-138 73 -25 255 -50 318 -43 65 8 59 -9 -15 -43 -77 -34 -131 -35 -272 -5
-237 50 -433 224 -527 465 -42 110 -70 239 -72 342 -2 87 -1 91 28 125 38 44
39 42 54 -129z m1700 93 l24 -57 -21 -20 c-20 -20 -20 -20 -46 -2 -29 22 -33
55 -11 97 8 15 11 35 8 45 -6 14 -4 15 8 5 8 -7 25 -37 38 -68z m-1377 -20
c71 -139 189 -278 271 -321 27 -14 30 -14 52 10 50 54 104 46 135 -20 l22 -45
62 6 c33 3 71 8 84 11 12 2 22 2 22 0 0 -8 -107 -36 -137 -36 -18 0 -42 -11
-59 -25 -55 -48 -109 -43 -142 15 -9 16 -25 30 -35 30 -50 0 -168 87 -232 172
-83 110 -127 226 -103 272 12 22 14 20 60 -69z m1637 -24 c32 -20 -6 -370 -42
-393 -32 -20 -33 -5 -7 257 15 156 16 157 49 136z m-839 -73 c25 -41 25 -43 0
-68 -24 -24 -75 -27 -84 -4 -13 33 -5 63 20 83 35 28 41 27 64 -11z m1090 -92
c0 -253 -110 -454 -299 -551 -69 -35 -178 -66 -253 -72 -68 -5 -89 -2 -162 21
-46 15 -95 37 -107 49 l-24 22 24 3 c13 2 33 -1 45 -7 41 -20 130 -41 176 -41
127 0 277 61 378 154 100 93 172 267 172 415 0 27 3 62 6 79 6 27 9 30 25 21
16 -8 19 -22 19 -93z m-2049 67 c8 -10 28 -58 43 -108 74 -235 283 -429 476
-443 116 -8 224 28 277 93 29 35 30 35 47 16 26 -28 13 -77 -26 -101 -62 -38
-190 -73 -268 -73 -93 -1 -156 19 -270 86 -169 100 -277 262 -308 463 -13 80
-2 105 29 67z m-797 1 c26 -10 18 -39 -25 -95 -65 -81 -107 -122 -194 -187
-110 -82 -191 -125 -320 -167 -258 -86 -543 -44 -656 98 -32 41 -39 57 -39 93
0 24 3 44 8 44 24 0 71 -42 77 -69 13 -58 120 -117 239 -132 256 -33 559 97
792 337 82 84 89 89 118 78z m-582 -51 c39 -35 9 -93 -48 -93 -27 0 -35 5 -40
24 -9 37 -1 59 26 73 33 17 40 16 62 -4z m313 -63 c-28 -31 -117 -89 -151 -99
-28 -8 -31 -7 -27 10 3 10 8 19 12 19 4 0 16 8 27 18 41 39 96 69 125 70 30 1
30 0 14 -18z m4085 -45 c24 -12 30 -22 30 -47 0 -61 -51 -87 -90 -46 -26 28
-26 62 2 88 26 24 22 24 58 5z m-4689 -17 c3 -5 19 -11 35 -14 16 -2 56 -14
89 -25 62 -22 139 -28 190 -16 20 5 25 4 16 -2 -11 -7 -10 -10 5 -14 15 -4 13
-5 -6 -6 -17 -1 -21 -4 -12 -10 9 -5 -6 -12 -43 -19 -69 -14 -138 -2 -206 35
-45 24 -109 76 -109 88 0 7 34 -7 41 -17z m2581 -18 c-18 -17 -40 -30 -50 -30
-12 1 -8 9 18 30 46 40 76 40 32 0z m735 2 c6 -4 17 -20 22 -36 15 -37 -4 -77
-43 -91 -25 -8 -31 -6 -52 18 -13 16 -24 39 -24 52 0 44 61 80 97 57z m640 -7
c9 -25 -4 -29 -17 -6 -7 15 -7 21 0 21 6 0 13 -7 17 -15z m270 -31 c46 -36 83
-106 83 -154 -1 -109 -120 -216 -212 -189 -95 27 -167 126 -154 212 9 61 46
118 91 145 58 33 140 27 192 -14z m-3069 -131 c11 -21 1 -53 -22 -72 -22 -18
-46 2 -46 38 0 47 49 71 68 34z m-63 -263 c39 -24 69 -89 60 -131 -7 -32 -54
-76 -91 -85 -37 -9 -74 4 -111 41 -36 36 -41 66 -19 119 29 71 98 95 161 56z
m-395 -65 c-19 -14 -36 -25 -39 -25 -10 0 53 49 63 50 6 0 -5 -11 -24 -25z
m-1226 -90 c7 -20 -2 -42 -21 -49 -20 -8 -33 1 -33 23 0 35 42 55 54 26z m900
-77 c14 -23 -3 -66 -35 -90 -22 -17 -30 -18 -48 -8 -45 23 -45 95 -2 116 27
14 70 4 85 -18z m2425 -373 c16 -14 35 -42 42 -62 10 -31 9 -41 -6 -69 -39
-73 -129 -81 -185 -17 -26 29 -31 41 -26 67 18 91 111 134 175 81z m-1841
-377 c-3 -216 -2 -402 2 -413 4 -11 25 -30 45 -40 36 -20 37 -21 32 -68 -2
-27 -9 -53 -15 -59 -13 -13 -178 10 -191 26 -30 40 -34 88 -37 508 l-4 427 83
4 c45 1 84 4 86 5 2 1 2 -175 -1 -390z m1560 383 c23 -5 45 -10 47 -13 3 -2
-1 -35 -8 -73 l-12 -69 -60 3 c-82 3 -99 -11 -100 -80 l0 -53 84 3 c75 3 83 1
77 -14 -3 -9 -6 -41 -6 -71 l0 -54 -85 0 -85 0 0 -264 0 -264 -71 -4 c-39 -2
-75 0 -81 3 -11 7 -13 475 -2 503 5 13 -2 16 -45 16 l-51 0 0 53 c0 28 -3 63
-7 76 -6 24 -5 24 44 18 l51 -6 -5 39 c-8 57 15 137 50 177 62 71 151 96 265
74z m-1227 -73 c1 -40 1 -215 -1 -389 -2 -216 1 -322 9 -337 6 -11 31 -28 56
-38 l46 -17 -3 -50 c-4 -68 -17 -74 -115 -58 -108 17 -111 18 -131 54 -15 28
-18 79 -23 452 -3 231 -9 428 -13 438 -7 15 0 17 83 17 l91 0 1 -72z m2484
-74 c4 -77 4 -156 0 -175 l-7 -34 23 21 c52 47 110 68 189 68 85 1 132 -18
187 -76 61 -63 66 -87 71 -365 l5 -253 -92 0 -91 0 0 224 c0 124 -4 236 -10
250 -13 35 -66 66 -113 66 -20 0 -57 -9 -81 -21 -72 -33 -76 -51 -76 -303 l0
-216 -89 0 -90 0 0 472 c1 260 2 475 4 478 2 3 39 5 83 5 l80 0 7 -141z
m-3872 94 c3 -18 4 -179 2 -358 -3 -371 -7 -401 -76 -475 -49 -53 -120 -85
-207 -92 -84 -6 -150 16 -259 90 l-76 51 24 15 c13 8 43 35 67 58 l42 44 33
-24 c55 -42 94 -57 145 -57 40 0 53 5 75 28 54 56 58 81 51 320 -4 119 -4 265
1 325 l7 107 83 0 83 0 5 -32z m580 -241 c117 -53 183 -156 189 -292 l3 -80
-237 -3 c-264 -3 -254 0 -221 -69 9 -19 34 -47 56 -61 53 -36 148 -37 220 -4
l49 22 44 -35 c25 -18 51 -36 57 -38 19 -7 0 -20 -93 -68 -83 -43 -85 -44
-185 -44 -89 0 -106 3 -156 28 -67 32 -131 98 -161 165 -18 38 -22 66 -22 152
0 94 3 112 27 165 78 169 262 239 430 162z m1567 20 c0 -21 -49 -164 -101
-294 -27 -68 -74 -189 -104 -269 -30 -80 -66 -167 -80 -193 -61 -121 -178
-160 -307 -103 l-48 21 25 53 c14 29 25 63 25 76 0 28 1 27 46 -3 20 -14 40
-25 45 -25 16 0 67 51 78 78 13 31 -9 94 -136 387 -62 143 -103 249 -103 267
0 4 40 8 89 8 l89 0 6 -32 c3 -18 31 -93 61 -168 29 -75 60 -158 66 -185 13
-51 29 -81 29 -54 0 7 35 109 78 224 l78 210 74 6 c41 3 78 6 83 7 4 1 7 -4 7
-11z m1336 -23 c46 -20 84 -39 84 -43 0 -4 -12 -23 -26 -42 -14 -19 -30 -45
-35 -58 -9 -23 -10 -23 -29 -6 -47 43 -184 60 -228 29 -28 -19 -29 -64 -3 -89
11 -9 59 -28 107 -42 102 -28 138 -45 177 -82 41 -37 57 -73 57 -126 0 -81
-48 -153 -133 -197 -34 -18 -59 -22 -127 -22 -96 0 -148 15 -247 72 l-62 36
49 52 c28 29 50 59 50 66 0 7 6 3 14 -8 22 -32 128 -75 186 -76 40 -1 55 3 75
22 52 49 28 77 -111 126 -161 56 -214 107 -214 204 1 130 107 218 263 219 57
1 82 -5 153 -35z m-565 -247 c4 -144 5 -297 2 -339 l-6 -78 -83 0 -83 0 -3
340 -3 339 80 3 c44 2 82 2 84 0 3 -1 8 -121 12 -265z m-1845 -747 c7 0 43
-40 80 -90 36 -49 71 -87 76 -84 6 4 9 41 7 88 l-4 81 28 3 27 3 0 -73 c0 -40
3 -109 6 -153 3 -46 1 -86 -5 -94 -18 -27 -57 4 -127 99 -37 49 -68 90 -69 90
-1 0 -3 -43 -3 -96 -1 -53 -3 -98 -4 -99 -2 -2 -15 -1 -30 2 l-28 5 0 165 c0
146 2 164 16 159 9 -3 22 -6 30 -6z m555 0 c19 -5 46 -20 58 -32 23 -20 23
-22 5 -35 -13 -9 -36 -11 -81 -7 -53 6 -67 4 -83 -11 -26 -23 -35 -78 -20
-115 25 -59 118 -92 140 -49 16 30 5 49 -28 49 -38 0 -60 24 -42 45 9 11 32
15 81 15 l69 0 0 -52 c0 -34 -7 -64 -19 -84 -20 -33 -75 -64 -114 -64 -33 0
-85 37 -124 88 -28 37 -33 52 -33 96 0 63 36 122 91 149 40 19 52 20 100 7z
m522 -200 c-9 -54 -30 -88 -73 -116 -32 -21 -48 -25 -76 -21 -88 14 -124 77
-124 214 0 108 4 123 36 123 24 0 24 -1 24 -103 0 -78 4 -108 16 -125 22 -32
60 -45 87 -31 31 17 37 28 37 79 0 25 3 75 6 112 6 63 8 67 33 70 26 3 26 2
33 -82 4 -47 4 -101 1 -120z m339 95 c42 -92 88 -209 88 -222 0 -1 -14 -3 -31
-3 -24 0 -32 6 -40 29 -9 27 -15 29 -72 33 -75 6 -87 2 -87 -27 0 -22 -17 -35
-46 -35 -30 0 -11 77 64 252 50 119 59 116 124 -27z m437 96 c20 -11 43 -27
51 -36 19 -23 -4 -37 -50 -30 -104 17 -115 17 -142 -5 -33 -26 -45 -78 -26
-116 18 -40 74 -74 117 -74 43 0 61 14 61 48 0 20 -4 23 -32 22 -18 -1 -39 -2
-45 -1 -14 1 -18 47 -5 55 5 3 40 2 79 -1 l70 -6 -1 -60 c-2 -53 -5 -63 -33
-87 -64 -57 -165 -48 -230 21 -47 49 -51 61 -52 125 -2 121 128 201 238 145z
m479 -16 l-3 -30 -83 -3 -83 -3 3 -32 3 -32 70 -5 c68 -5 70 -6 73 -34 l4 -29
-76 5 -76 5 0 -39 0 -38 58 -1 c94 -2 117 -10 120 -42 l3 -27 -119 0 -119 0
-7 61 c-3 34 -6 110 -6 168 l0 106 120 0 121 0 -3 -30z m-3084 -27 c3 -29 6
-88 6 -130 l0 -78 75 0 c53 0 75 -4 75 -12 0 -7 3 -23 6 -35 6 -23 6 -23 -110
-23 l-116 0 0 165 0 165 29 0 c27 0 29 -3 35 -52z m497 -87 c33 -73 63 -146
66 -162 5 -27 3 -29 -25 -29 -26 0 -32 5 -42 35 l-12 35 -68 0 c-71 0 -80 -6
-80 -51 0 -15 -7 -19 -35 -19 -19 0 -35 1 -35 3 0 22 96 285 117 320 3 5 16 7
29 5 21 -3 34 -22 85 -137z m-913 2 c109 -5 142 -9 142 -20 0 -11 -53 -13
-285 -13 -157 0 -285 2 -285 4 0 2 3 11 6 20 5 14 27 16 143 16 75 0 200 -3
279 -7z m4297 -2 c13 -22 -33 -26 -303 -31 l-282 -5 0 23 0 22 289 0 c168 0
292 -4 296 -9z"/>
<path d="M3896 8307 c3 -10 9 -15 12 -12 3 3 0 11 -7 18 -10 9 -11 8 -5 -6z"/>
<path d="M3807 8066 c-5 -12 0 -16 21 -15 16 0 21 3 12 6 -8 3 -18 10 -21 15
-3 5 -9 3 -12 -6z"/>
<path d="M4114 8051 c5 -8 3 -17 -5 -22 -8 -5 -9 -9 -4 -9 6 0 16 4 23 9 10 6
9 11 -4 22 -14 11 -16 11 -10 0z"/>
<path d="M4638 7963 c7 -3 16 -2 19 1 4 3 -2 6 -13 5 -11 0 -14 -3 -6 -6z"/>
<path d="M5780 7959 c0 -5 5 -7 10 -4 6 3 10 8 10 11 0 2 -4 4 -10 4 -5 0 -10
-5 -10 -11z"/>
<path d="M4027 7953 c-10 -9 -9 -23 1 -23 5 0 9 7 9 15 0 17 -1 18 -10 8z"/>
<path d="M3738 7923 c7 -3 16 -2 19 1 4 3 -2 6 -13 5 -11 0 -14 -3 -6 -6z"/>
<path d="M4568 7916 c-10 -7 -18 -17 -18 -21 0 -4 6 -2 13 4 8 6 16 9 19 6 2
-3 5 2 5 10 0 8 -1 15 -1 15 -1 0 -9 -7 -18 -14z"/>
<path d="M6316 7916 c10 -8 21 -12 24 -10 5 6 -21 24 -34 24 -6 0 -1 -6 10
-14z"/>
<path d="M5867 7899 c7 -7 15 -10 18 -7 3 3 -2 9 -12 12 -14 6 -15 5 -6 -5z"/>
<path d="M4496 7880 c4 -14 11 -26 15 -28 11 -4 12 -22 2 -21 -5 1 -18 1 -30
0 -28 -1 -31 -17 -3 -17 11 0 20 5 20 10 0 5 7 1 16 -10 8 -10 13 -14 10 -8
-3 7 1 15 9 18 10 4 19 -2 25 -17 7 -19 9 -16 9 17 1 36 -1 38 -24 33 -20 -3
-29 2 -41 22 l-15 26 7 -25z"/>
<path d="M4526 7883 c-6 -14 -5 -15 5 -6 7 7 10 15 7 18 -3 3 -9 -2 -12 -12z"/>
<path d="M6300 7896 c0 -2 7 -7 16 -10 8 -3 12 -2 9 4 -6 10 -25 14 -25 6z"/>
<path d="M6345 7889 c-4 -6 -5 -12 -2 -15 2 -3 7 2 10 11 7 17 1 20 -8 4z"/>
<path d="M3727 7879 c7 -7 15 -10 18 -7 3 3 -2 9 -12 12 -14 6 -15 5 -6 -5z"/>
<path d="M4440 7879 c0 -5 3 -9 8 -10 4 0 15 -2 25 -4 9 -2 15 0 12 5 -7 12
-45 19 -45 9z"/>
<path d="M5935 7879 c-4 -6 -5 -12 -2 -15 2 -3 7 2 10 11 7 17 1 20 -8 4z"/>
<path d="M5752 7858 c5 -33 16 -48 36 -47 12 0 9 3 -7 10 -18 7 -22 12 -13 21
9 9 18 4 37 -18 14 -16 25 -25 25 -20 0 5 8 2 18 -5 15 -13 16 -12 3 4 -12 15
-11 17 8 17 12 0 20 -4 16 -9 -8 -14 14 -24 28 -13 7 5 24 13 39 18 l27 9 -24
11 c-19 9 -22 9 -18 -2 3 -8 1 -14 -5 -14 -6 0 -13 6 -15 13 -3 6 -6 2 -6 -10
-1 -13 -6 -23 -12 -23 -5 0 -7 4 -4 10 3 5 1 19 -5 30 -8 15 -17 19 -32 14
-17 -5 -20 -3 -14 12 5 15 2 15 -13 -4 -13 -15 -22 -19 -27 -11 -3 6 0 15 7
20 12 7 12 9 0 9 -8 0 -20 -8 -28 -17 -8 -10 -12 -13 -9 -6 4 6 2 15 -4 18 -7
4 -10 -2 -8 -17z m118 -12 c0 -3 -4 -8 -10 -11 -5 -3 -10 -1 -10 4 0 6 5 11
10 11 6 0 10 -2 10 -4z m-39 -29 c-10 -9 -11 -8 -5 6 3 10 9 15 12 12 3 -3 0
-11 -7 -18z"/>
<path d="M5870 7876 c0 -2 8 -10 18 -17 15 -13 16 -12 3 4 -13 16 -21 21 -21
13z"/>
<path d="M3718 7858 c5 -5 16 -8 23 -6 8 3 3 7 -10 11 -17 4 -21 3 -13 -5z"/>
<path d="M6300 7860 c0 -5 5 -10 11 -10 5 0 7 5 4 10 -3 6 -8 10 -11 10 -2 0
-4 -4 -4 -10z"/>
<path d="M6376 7845 c20 -30 24 -31 17 -6 -3 11 -11 22 -19 25 -11 4 -11 0 2
-19z"/>
<path d="M4014 7839 c-10 -4 -13 -8 -6 -8 7 -1 11 -5 8 -10 -4 -5 4 -7 16 -4
22 5 22 5 4 -9 -13 -11 -15 -15 -4 -15 7 0 18 5 24 11 15 17 -18 44 -42 35z"/>
<path d="M6346 7835 c-3 -8 -1 -15 4 -15 6 0 10 7 10 15 0 8 -2 15 -4 15 -2 0
-6 -7 -10 -15z"/>
<path d="M6646 7835 c-3 -9 -10 -13 -16 -10 -6 3 -7 -1 -4 -10 6 -14 9 -13 21
5 8 12 13 23 10 26 -2 3 -7 -2 -11 -11z"/>
<path d="M6295 7831 c-4 -7 0 -8 11 -4 12 4 15 3 10 -5 -4 -7 -2 -12 4 -12 14
0 8 22 -7 27 -6 2 -14 -1 -18 -6z"/>
<path d="M6280 7799 c0 -5 5 -7 10 -4 6 3 10 8 10 11 0 2 -4 4 -10 4 -5 0 -10
-5 -10 -11z"/>
<path d="M6345 7780 c-3 -5 1 -10 10 -10 9 0 13 5 10 10 -3 6 -8 10 -10 10 -2
0 -7 -4 -10 -10z"/>
<path d="M6665 7780 c-3 -5 -1 -10 4 -10 6 0 11 5 11 10 0 6 -2 10 -4 10 -3 0
-8 -4 -11 -10z"/>
<path d="M6690 7781 c0 -6 4 -13 10 -16 6 -3 7 1 4 9 -7 18 -14 21 -14 7z"/>
<path d="M5862 7766 c7 -8 15 -12 17 -11 5 6 -10 25 -20 25 -5 0 -4 -6 3 -14z"/>
<path d="M6265 7770 c-3 -5 -1 -10 4 -10 6 0 11 5 11 10 0 6 -2 10 -4 10 -3 0
-8 -4 -11 -10z"/>
<path d="M5940 7761 c0 -6 4 -13 10 -16 6 -3 7 1 4 9 -7 18 -14 21 -14 7z"/>
<path d="M6256 7741 c-3 -4 4 -7 14 -6 27 2 33 10 10 12 -11 1 -22 -2 -24 -6z"/>
<path d="M6710 7739 c0 -5 5 -7 10 -4 6 3 10 8 10 11 0 2 -4 4 -10 4 -5 0 -10
-5 -10 -11z"/>
<path d="M6237 7713 c-13 -12 -7 -23 11 -22 10 0 12 3 4 6 -6 2 -10 9 -6 14 6
10 0 12 -9 2z"/>
<path d="M3626 7661 c-3 -5 1 -11 9 -14 9 -4 12 -1 8 9 -6 16 -10 17 -17 5z"/>
<path d="M3658 7663 c7 -3 16 -2 19 1 4 3 -2 6 -13 5 -11 0 -14 -3 -6 -6z"/>
<path d="M3690 7660 c0 -5 5 -10 11 -10 5 0 7 5 4 10 -3 6 -8 10 -11 10 -2 0
-4 -4 -4 -10z"/>
<path d="M6660 7659 c0 -5 5 -7 10 -4 6 3 10 8 10 11 0 2 -4 4 -10 4 -5 0 -10
-5 -10 -11z"/>
<path d="M4208 7648 c6 -6 18 -8 28 -6 14 3 12 5 -9 10 -19 3 -25 2 -19 -4z"/>
<path d="M6200 7656 c0 -2 7 -7 16 -10 8 -3 12 -2 9 4 -6 10 -25 14 -25 6z"/>
<path d="M4177 7639 c7 -7 15 -10 18 -7 3 3 -2 9 -12 12 -14 6 -15 5 -6 -5z"/>
<path d="M6688 7588 c5 -5 16 -8 23 -6 8 3 3 7 -10 11 -17 4 -21 3 -13 -5z"/>
<path d="M6570 7577 c0 -12 -4 -16 -12 -11 -8 5 -8 1 2 -12 22 -29 24 -30 17
-11 -7 19 9 24 16 5 4 -10 6 -10 6 0 1 7 6 10 13 6 7 -5 8 -3 4 5 -5 7 -10 10
-14 7 -3 -3 -11 2 -18 12 -13 16 -13 16 -14 -1z"/>
<path d="M3650 7540 c0 -5 5 -10 11 -10 5 0 7 5 4 10 -3 6 -8 10 -11 10 -2 0
-4 -4 -4 -10z"/>
<path d="M3950 7511 c0 -6 4 -13 10 -16 6 -3 7 1 4 9 -7 18 -14 21 -14 7z"/>
<path d="M3925 7480 c3 -5 8 -10 11 -10 2 0 4 5 4 10 0 6 -5 10 -11 10 -5 0
-7 -4 -4 -10z"/>
<path d="M4710 7256 c0 -8 5 -18 10 -21 6 -3 10 1 10 9 0 8 -4 18 -10 21 -5 3
-10 -1 -10 -9z"/>
<path d="M8287 8563 c-12 -11 -7 -41 7 -46 8 -3 22 0 32 8 15 11 16 15 5 29
-14 17 -33 21 -44 9z"/>
<path d="M3093 7379 c-40 -20 -73 -66 -73 -103 0 -31 23 -64 60 -85 59 -33
104 -27 158 22 49 45 13 141 -65 173 -40 17 -30 18 -80 -7z"/>
<path d="M3826 7185 c9 -14 18 -25 20 -25 2 0 -2 11 -8 25 -6 14 -15 25 -20
25 -5 0 -1 -11 8 -25z"/>
<path d="M3902 7155 c-11 -12 -10 -15 3 -15 8 0 15 7 15 15 0 18 -2 18 -18 0z"/>
<path d="M2110 5300 c0 -5 5 -10 11 -10 5 0 7 5 4 10 -3 6 -8 10 -11 10 -2 0
-4 -4 -4 -10z"/>
<path d="M2138 4079 c-30 -17 -23 -75 11 -110 36 -35 69 -37 105 -4 35 33 33
57 -9 94 -37 32 -75 39 -107 20z"/>
<path d="M7527 3606 c-33 -31 -43 -68 -27 -107 31 -73 118 -94 164 -38 42 50
31 120 -24 152 -40 24 -82 21 -113 -7z"/>
<path d="M3754 2286 c-38 -17 -70 -57 -79 -97 -4 -17 -5 -32 -3 -34 1 -2 72
-7 157 -11 l154 -7 -6 38 c-8 51 -30 81 -77 105 -45 23 -101 25 -146 6z"/>
<path d="M5766 1259 c-9 -23 -16 -43 -14 -44 2 -2 21 -5 43 -6 35 -3 40 -1 37
16 -5 28 -31 75 -41 75 -5 0 -16 -19 -25 -41z"/>
<path d="M4086 1260 c-9 -22 -16 -43 -16 -45 0 -3 18 -5 40 -5 45 0 45 -1 26
44 -21 49 -32 51 -50 6z"/>
</g>
</svg>
